# xmcd
# Track frame offsets:
# 150
# 33107
# 84379
# 110557
# 140659
# 191384
# 248169
# 262718
# 290123
# 314792
# 346623
#
# Disc length: 4798 seconds
# Revision: 0
# Processed by: cddbd v1.5.2PL0 Copyright (c) Steve Scherf et al.
# Submitted via: VisiTrax 2.10.2.252 - For more info visit www.synapsa.com
#
DISCID=9912bc0b
DTITLE=Chicken Chack - Stan would rather go live
DYEAR=2004
DGENRE=Blues
TTITLE0=So tell me
TTITLE1=The trill has gone
TTITLE2=Reconsider baby
TTITLE3=I know you know me
TTITLE4=You are the sweetest little yhing/hurt
TTITLE5=Stan Webb´s Chicken Shack opera
TTITLE6=Spoonful
TTITLE7=Doctor Brown
TTITLE8=I´d rather go blind
TTITLE9=The aughter of the hillside
TTITLE10=Stan´s blues
EXTD=
EXTT0=
EXTT1=
EXTT2=
EXTT3=
EXTT4=
EXTT5=
EXTT6=
EXTT7=
EXTT8=
EXTT9=
EXTT10=
PLAYORDER=
